<svg xmlns="http://www.w3.org/2000/svg" id="svg3142" viewBox="0 0 65 41.531"><defs id="defs3144"><style>@import url(http://fonts.googleapis.com/css?family=Suez+One);</style><style xmlns="http://www.w3.org/2000/svg">text{font-family:&apos;Suez One&apos;}</style></defs><g id="layer1" transform="translate(458.58 -1206.195)"><g transform="translate(-1778.611 -54.524)" id="g3108" fill="#fff"><path id="path3133" d="M1326.412 1278.73c.414-9.693 8.538-17.516 18.288-17.516 6.208 0 11.884 3.069 15.288 8.236a13.441 13.441 0 0 1 3.299-.41c5.438 0 10.389 3.347 12.43 8.363 5.204 1.584 8.809 6.426 8.809 11.898 0 6.856-5.578 12.434-12.435 12.434h-39.13c-6.857.001-12.435-5.578-12.435-12.434a12.49 12.49 0 0 1 5.886-10.57zm6.548 21.614h39.131c6.09 0 11.043-4.953 11.043-11.043 0-4.964-3.34-9.345-8.124-10.652l-.342-.094-.126-.333c-1.752-4.66-6.276-7.79-11.256-7.79-1.16 0-2.308.165-3.412.49l-.509.151-.28-.45c-3.11-5.02-8.487-8.018-14.386-8.018-9.127 0-16.713 7.421-16.909 16.542l-.01.392-.338.195a11.094 11.094 0 0 0-5.528 9.567c0 6.09 4.955 11.043 11.044 11.043z" stroke="#fff"/><text style="text-align:start;line-height:100%;-inkscape-font-specification:Suez One" x="1329.647" y="1289.294" id="text3135" font-size="9.778" font-weight="400" letter-spacing="0" word-spacing="0" font-family="Suez One"><tspan x="1329.647" y="1289.294" id="tspan3137" style="text-align:start;-inkscape-font-specification:Suez One">About Me</tspan></text></g></g></svg>