<?xml version="1.0" encoding="UTF-8" standalone="no"?>
<svg
   xmlns:dc="http://purl.org/dc/elements/1.1/"
   xmlns:cc="http://creativecommons.org/ns#"
   xmlns:rdf="http://www.w3.org/1999/02/22-rdf-syntax-ns#"
   xmlns:svg="http://www.w3.org/2000/svg"
   xmlns="http://www.w3.org/2000/svg"
   xmlns:sodipodi="http://sodipodi.sourceforge.net/DTD/sodipodi-0.dtd"
   xmlns:inkscape="http://www.inkscape.org/namespaces/inkscape"
   version="1.1"
   x="0px"
   y="0px"
   viewBox="0 0 64.015337 63.973891"
   enable-background="new 0 0 100 100"
   xml:space="preserve"
   id="svg2"
   inkscape:version="0.91 r13725"
   width="100%"
   height="100%"
   sodipodi:docname="email-light.svg"><metadata
     id="metadata16"><rdf:RDF><cc:Work
         rdf:about=""><dc:format>image/svg+xml</dc:format><dc:type
           rdf:resource="http://purl.org/dc/dcmitype/StillImage" /><dc:title></dc:title></cc:Work></rdf:RDF></metadata><defs
     id="defs14" /><sodipodi:namedview
     pagecolor="#ffffff"
     bordercolor="#666666"
     borderopacity="1"
     objecttolerance="10"
     gridtolerance="10"
     guidetolerance="10"
     inkscape:pageopacity="0"
     inkscape:pageshadow="2"
     inkscape:window-width="1920"
     inkscape:window-height="1018"
     id="namedview12"
     showgrid="false"
     fit-margin-top="0"
     fit-margin-left="0"
     fit-margin-right="0"
     fit-margin-bottom="0"
     inkscape:zoom="1.888"
     inkscape:cx="208.32144"
     inkscape:cy="83.367376"
     inkscape:window-x="1912"
     inkscape:window-y="-8"
     inkscape:window-maximized="1"
     inkscape:current-layer="svg2" /><path
     style="fill:#7ca4ca;fill-opacity:1;stroke:none;stroke-width:0.44400001;stroke-miterlimit:4;stroke-opacity:1;stroke-dasharray:none"
     d="M 31.996094 0.16601562 A 31.818349 31.818349 0 0 0 0.17773438 31.984375 A 31.818349 31.818349 0 0 0 31.996094 63.802734 A 31.818349 31.818349 0 0 0 63.814453 31.984375 A 31.818349 31.818349 0 0 0 31.996094 0.16601562 z M 17.210938 17.890625 L 46.802734 17.890625 C 47.759538 17.890625 48.633525 18.210942 49.337891 18.744141 L 32.957031 34.011719 C 32.466931 34.470997 31.663928 34.467127 31.173828 34.007812 L 14.791016 18.664062 C 15.475679 18.177657 16.309548 17.890625 17.210938 17.890625 z M 13.599609 19.960938 L 31.169922 36.419922 C 31.660022 36.879275 32.462516 36.880681 32.955078 36.423828 L 50.486328 20.082031 C 50.818808 20.686652 51.007812 21.38225 51.007812 22.121094 L 51.007812 41.849609 C 51.007812 44.180663 49.131325 46.083984 46.802734 46.083984 L 17.210938 46.083984 C 14.884809 46.083984 13.007812 44.180663 13.007812 41.849609 L 13.007812 22.121094 C 13.007813 21.332994 13.225261 20.59265 13.599609 19.960938 z "
     id="path3000" /></svg>