<svg xmlns="http://www.w3.org/2000/svg" viewBox="0 0 64 64"><path d="M32 0C14.328 0 0 14.328 0 32c0 14.14 9.168 26.133 21.885 30.363 1.6.293 2.183-.695 2.183-1.539 0-.762-.029-3.285-.045-5.957-8.898 1.934-10.779-3.773-10.779-3.773-1.457-3.696-3.553-4.68-3.553-4.68-2.908-1.984.221-1.945.221-1.945 3.213.222 4.904 3.297 4.904 3.297 2.856 4.89 7.493 3.476 9.313 2.656.29-2.063 1.119-3.477 2.031-4.274-7.103-.808-14.576-3.554-14.576-15.816 0-3.496 1.248-6.348 3.291-8.588-.326-.812-1.428-4.068.316-8.472 0 0 2.684-.86 8.801 3.28 2.55-.712 5.287-1.064 8.008-1.075 2.719.011 5.457.367 8.012 1.08 6.105-4.145 8.793-3.282 8.793-3.282 1.75 4.409.648 7.66.32 8.47 2.05 2.24 3.29 5.09 3.29 8.587 0 12.293-7.485 15-14.614 15.793 1.152.992 2.172 2.938 2.172 5.922 0 4.277-.043 7.726-.043 8.781 0 .852.582 1.848 2.203 1.535C54.84 58.125 64 46.133 64 32 64 14.328 49.672 0 32 0z" fill="#568aba"/></svg>