<svg xmlns="http://www.w3.org/2000/svg" id="svg3142" viewBox="0 0 170 107.635"><defs id="defs3144"><style id="style4050">@import url(http://fonts.googleapis.com/css?family=Suez+One);</style><style id="style4052">text{font-family:&apos;Suez One&apos;}</style></defs><g id="layer1" transform="translate(-277.857 -158.545)"><g id="g3099" transform="translate(-152.189 -17.586)" fill="#fff"><path id="path3101" d="M445.68 222.66c1.1-25.75 22.68-46.529 48.578-46.529 16.492 0 31.569 8.151 40.609 21.877a35.702 35.702 0 0 1 8.764-1.09c14.444 0 27.595 8.89 33.019 22.216 13.82 4.206 23.396 17.067 23.396 31.602 0 18.213-14.817 33.03-33.03 33.03h-103.94c-18.212.002-33.03-14.817-33.03-33.03 0-11.399 5.966-22.06 15.635-28.076zm17.395 57.41h103.941c16.175 0 29.334-13.157 29.334-29.332 0-13.187-8.874-24.824-21.58-28.296l-.91-.25-.332-.884c-4.656-12.378-16.673-20.694-29.9-20.694-3.08 0-6.13.44-9.062 1.306l-1.353.4-.742-1.199c-8.265-13.334-22.546-21.294-38.215-21.294-24.244 0-44.395 19.71-44.913 43.94l-.022 1.039-.9.519c-9.054 5.243-14.681 14.98-14.681 25.411 0 16.177 13.16 29.334 29.335 29.334z"/><text style="text-align:start;line-height:100%;-inkscape-font-specification:Passion One" x="472.45" y="219.236" id="text3103" font-size="40" font-weight="400" letter-spacing="0" word-spacing="0" font-family="Passion One"><tspan id="tspan3105" x="472.45" y="219.236" style="text-align:start;-inkscape-font-specification:Suez One" font-size="20" font-family="Suez One">Mike </tspan><tspan x="472.45" y="240.341" style="text-align:start;-inkscape-font-specification:Suez One" id="tspan3107" font-size="20" font-family="Suez One">Baldwin</tspan></text><text style="line-height:125%;-inkscape-font-specification:Passion One" x="455.138" y="262.147" id="text3111" font-size="40" font-weight="400" letter-spacing="0" word-spacing="0" font-family="Passion One"><tspan id="tspan3113" x="455.138" y="262.147" style="-inkscape-font-specification:Suez One" font-size="14" font-family="Suez One">Software Engineer</tspan></text></g></g></svg>