<svg xmlns="http://www.w3.org/2000/svg" id="svg3142" viewBox="0 0 65 41.531"><defs id="defs3144"><style>@import url(http://fonts.googleapis.com/css?family=Suez+One);</style><style xmlns="http://www.w3.org/2000/svg">text{font-family:&apos;Suez One&apos;}</style></defs><g id="layer1" transform="translate(-711.057 -699.706)"><g transform="translate(-477.099 -593.263)" id="g3118"><g id="g3123" transform="translate(-199 630)" fill="#fff"><path id="path3125" d="M1393.556 680.985c.414-9.694 8.538-17.517 18.288-17.517 6.21 0 11.885 3.069 15.288 8.236a13.441 13.441 0 0 1 3.3-.41c5.438 0 10.388 3.347 12.43 8.363 5.204 1.584 8.808 6.426 8.808 11.898 0 6.856-5.578 12.434-12.434 12.434h-39.13c-6.857.001-12.436-5.578-12.436-12.434a12.49 12.49 0 0 1 5.886-10.57zm6.55 21.613h39.13c6.09 0 11.043-4.953 11.043-11.043 0-4.964-3.34-9.345-8.124-10.652l-.343-.094-.125-.333c-1.753-4.66-6.277-7.79-11.256-7.79-1.16 0-2.308.165-3.412.49l-.51.151-.279-.451c-3.11-5.02-8.488-8.017-14.386-8.017-9.128 0-16.714 7.42-16.909 16.542l-.01.392-.339.195a11.094 11.094 0 0 0-5.527 9.567c0 6.09 4.955 11.043 11.044 11.043z" stroke="#fff"/><text style="text-align:start;line-height:100%;-inkscape-font-specification:Passion One" x="1399.078" y="691.548" id="text3127" font-size="17.778" font-weight="400" letter-spacing="0" word-spacing="0" font-family="Passion One"><tspan x="1399.078" y="691.548" id="tspan3129" style="text-align:start;-inkscape-font-specification:Suez One" font-size="9.778" font-family="Suez One">Portfolio</tspan></text></g></g></g></svg>