<?xml version="1.0" encoding="UTF-8" standalone="no"?>
<svg
   xmlns:dc="http://purl.org/dc/elements/1.1/"
   xmlns:cc="http://creativecommons.org/ns#"
   xmlns:rdf="http://www.w3.org/1999/02/22-rdf-syntax-ns#"
   xmlns:svg="http://www.w3.org/2000/svg"
   xmlns="http://www.w3.org/2000/svg"
   xmlns:sodipodi="http://sodipodi.sourceforge.net/DTD/sodipodi-0.dtd"
   xmlns:inkscape="http://www.inkscape.org/namespaces/inkscape"
   version="1.1"
   x="0px"
   y="0px"
   viewBox="7.571 0.563 63.999998 64"
   enable-background="new 7.571 0.563 84.731 100"
   xml:space="preserve"
   id="svg2"
   inkscape:version="0.91 r13725"
   sodipodi:docname="resume-light.svg"
   width="64"
   height="64"><metadata
     id="metadata26"><rdf:RDF><cc:Work
         rdf:about=""><dc:format>image/svg+xml</dc:format><dc:type
           rdf:resource="http://purl.org/dc/dcmitype/StillImage" /><dc:title></dc:title></cc:Work></rdf:RDF></metadata><defs
     id="defs24" /><sodipodi:namedview
     pagecolor="#ffffff"
     bordercolor="#666666"
     borderopacity="1"
     objecttolerance="10"
     gridtolerance="10"
     guidetolerance="10"
     inkscape:pageopacity="0"
     inkscape:pageshadow="2"
     inkscape:window-width="1920"
     inkscape:window-height="1018"
     id="namedview22"
     showgrid="false"
     fit-margin-top="0"
     fit-margin-left="0"
     fit-margin-right="0"
     fit-margin-bottom="0"
     inkscape:zoom="1.888"
     inkscape:cx="165.77651"
     inkscape:cy="30.72034"
     inkscape:window-x="1912"
     inkscape:window-y="-8"
     inkscape:window-maximized="1"
     inkscape:current-layer="svg2" /><path
     style="opacity:1;fill:#7ca4ca;fill-opacity:1;stroke:none;stroke-width:0.44400001;stroke-miterlimit:4;stroke-dasharray:none;stroke-opacity:1"
     d="M 32 0 A 32 32 0 0 0 0 32 A 32 32 0 0 0 32 64 A 32 32 0 0 0 64 32 A 32 32 0 0 0 32 0 z M 15.75 12 L 35.75 12 L 35.75 24.5 L 48.25 24.5 L 48.25 52 L 15.75 52 L 15.75 12 z M 38.25 12 L 48.25 22 L 38.25 22 L 38.25 12 z M 20.75 22 L 20.75 24.5 L 30.75 24.5 L 30.75 22 L 20.75 22 z M 20.75 29.5 L 20.75 32 L 43.25 32 L 43.25 29.5 L 20.75 29.5 z M 20.75 37 L 20.75 39.5 L 38.25 39.5 L 38.25 37 L 20.75 37 z M 20.75 44.5 L 20.75 47 L 43.25 47 L 43.25 44.5 L 20.75 44.5 z "
     transform="translate(7.5709982,0.56300002)"
     id="path4160" /></svg>